<?xml version="1.0" encoding="iso-8859-1"?>
<!-- Generator: Adobe Illustrator 19.0.0, SVG Export Plug-In . SVG Version: 6.00 Build 0)  -->
<svg version="1.1" id="Layer_1" xmlns="http://www.w3.org/2000/svg" xmlns:xlink="http://www.w3.org/1999/xlink" x="0px" y="0px"
	 viewBox="0 0 512 512" style="enable-background:new 0 0 512 512;" xml:space="preserve" fill="#fff">
<g>
	<g>
		<path d="M475.339,287.434c0.002-38.515-9.93-76.529-28.718-109.932l-3.771-6.703l-30.782,17.772l-153.693,88.734V113.557V98.349
			V62.863h-7.604c-78.465,0-151.316,41.189-191.964,108.002l-0.115-0.066l-3.745,6.658c-0.008,0.015-0.017,0.029-0.025,0.045
			l-3.686,6.554l0.114,0.065c-16.471,31.763-25.147,67.318-25.147,103.311c0,37.841,9.532,75.001,27.631,107.966l-0.117,0.067
			l3.94,6.622l3.837,6.449l0.114-0.066c19.277,30.057,45.584,55.284,76.48,73.245c31.898,18.544,68.077,28.904,105.081,30.155V512
			h7.604h7.605v-0.143c52.894-1.779,103.321-22.07,142.729-57.614L390.92,442.95c-36.61,33.02-83.419,51.932-132.544,53.704v-20.139
			v-0.153c0.97-0.04,1.938-0.107,2.908-0.161c0.784-0.045,1.567-0.077,2.349-0.131c1.361-0.093,2.717-0.214,4.074-0.337
			c0.627-0.057,1.254-0.099,1.88-0.161c1.986-0.199,3.967-0.427,5.942-0.687c0.1-0.013,0.198-0.03,0.297-0.044
			c1.874-0.25,3.742-0.528,5.606-0.835c0.641-0.105,1.276-0.23,1.915-0.342c1.321-0.231,2.641-0.463,3.955-0.723
			c0.755-0.149,1.506-0.315,2.259-0.474c1.193-0.25,2.386-0.501,3.571-0.774c0.801-0.185,1.597-0.383,2.394-0.578
			c1.135-0.277,2.269-0.556,3.398-0.854c0.818-0.215,1.631-0.444,2.446-0.67c1.102-0.306,2.202-0.617,3.298-0.944
			c0.824-0.245,1.643-0.499,2.464-0.755c1.081-0.338,2.161-0.684,3.234-1.041c0.819-0.272,1.636-0.549,2.452-0.833
			c1.07-0.372,2.136-0.755,3.198-1.147c0.807-0.297,1.614-0.596,2.417-0.904c1.067-0.41,2.127-0.833,3.187-1.262
			c0.786-0.318,1.575-0.635,2.356-0.964c1.076-0.452,2.142-0.922,3.209-1.394c0.753-0.335,1.51-0.662,2.259-1.006
			c1.106-0.507,2.201-1.035,3.298-1.564c0.698-0.337,1.399-0.664,2.094-1.01c1.2-0.597,2.39-1.221,3.579-1.845
			c0.576-0.302,1.158-0.592,1.73-0.9c1.755-0.945,3.498-1.914,5.223-2.916c1.672-0.97,3.326-1.969,4.967-2.99
			c0.539-0.336,1.069-0.687,1.605-1.028c1.093-0.696,2.186-1.392,3.265-2.11c0.633-0.42,1.253-0.856,1.88-1.284
			c0.968-0.661,1.936-1.323,2.894-2.002c0.657-0.467,1.305-0.947,1.958-1.422c0.908-0.663,1.814-1.327,2.71-2.005
			c0.663-0.502,1.318-1.013,1.974-1.523c0.868-0.676,1.734-1.356,2.591-2.047c0.655-0.528,1.304-1.063,1.952-1.6
			c0.841-0.698,1.679-1.401,2.509-2.113c0.64-0.549,1.274-1.1,1.906-1.657c0.822-0.724,1.636-1.456,2.445-2.195
			c0.618-0.564,1.236-1.129,1.847-1.702c0.807-0.755,1.603-1.522,2.397-2.291c0.592-0.574,1.186-1.147,1.771-1.729
			c0.801-0.797,1.589-1.607,2.377-2.418c0.556-0.573,1.115-1.142,1.664-1.722c0.816-0.862,1.615-1.738,2.414-2.615
			c0.5-0.549,1.006-1.09,1.5-1.643c0.886-0.996,1.753-2.008,2.619-3.023c0.386-0.451,0.781-0.894,1.162-1.349
			c1.238-1.478,2.456-2.975,3.65-4.491c0.117-0.148,0.228-0.302,0.345-0.451c1.072-1.369,2.126-2.75,3.159-4.148
			c0.396-0.536,0.777-1.083,1.166-1.623c0.74-1.022,1.478-2.045,2.197-3.082c0.445-0.641,0.874-1.293,1.311-1.941
			c0.502-0.742,1.014-1.477,1.505-2.227l12.018,6.938l5.631,3.25c-6.409,9.92-13.675,19.324-21.666,28.037l11.208,10.28
			c8.739-9.529,16.658-19.839,23.631-30.712l0.123,0.071l3.836-6.449c0.005-0.008,0.01-0.017,0.015-0.025l3.925-6.595l-0.117-0.067
			C465.806,362.433,475.339,325.273,475.339,287.434z M243.168,78.21v20.292c-1.073,0.044-2.139,0.119-3.208,0.18
			c-0.76,0.044-1.523,0.075-2.281,0.128c-1.507,0.105-3.008,0.241-4.509,0.382c-0.525,0.05-1.054,0.084-1.581,0.138
			c-2.023,0.207-4.038,0.446-6.046,0.719c-0.482,0.065-0.959,0.148-1.44,0.217c-1.524,0.218-3.047,0.443-4.561,0.698
			c-0.743,0.125-1.48,0.272-2.221,0.405c-1.248,0.226-2.496,0.45-3.738,0.701c-0.814,0.164-1.622,0.347-2.433,0.522
			c-1.16,0.249-2.32,0.501-3.474,0.772c-0.844,0.199-1.681,0.413-2.52,0.622c-1.114,0.278-2.226,0.559-3.334,0.858
			c-0.852,0.23-1.699,0.47-2.547,0.713c-1.088,0.309-2.174,0.625-3.253,0.953c-0.849,0.258-1.694,0.524-2.539,0.794
			c-1.072,0.343-2.138,0.693-3.203,1.054c-0.839,0.285-1.676,0.574-2.51,0.87c-1.064,0.377-2.121,0.766-3.176,1.163
			c-0.82,0.308-1.64,0.617-2.457,0.937c-1.064,0.417-2.121,0.847-3.176,1.283c-0.794,0.327-1.589,0.653-2.38,0.992
			c-1.077,0.461-2.145,0.941-3.213,1.421c-0.753,0.34-1.509,0.673-2.258,1.022c-1.12,0.522-2.229,1.067-3.339,1.61
			c-0.682,0.335-1.37,0.66-2.048,1.003c-1.244,0.629-2.474,1.281-3.703,1.938c-0.531,0.283-1.07,0.555-1.598,0.844
			c-1.759,0.96-3.505,1.945-5.234,2.959c-0.001,0.001-0.002,0.002-0.004,0.002c-1.72,1.01-3.421,2.049-5.108,3.114
			c-0.525,0.332-1.04,0.678-1.562,1.015c-1.157,0.745-2.313,1.491-3.453,2.263c-0.626,0.422-1.241,0.861-1.86,1.291
			c-1.023,0.709-2.045,1.417-3.054,2.146c-0.657,0.474-1.305,0.962-1.956,1.446c-0.957,0.71-1.912,1.421-2.855,2.15
			c-0.664,0.512-1.319,1.034-1.976,1.556c-0.914,0.725-1.826,1.454-2.727,2.197c-0.658,0.542-1.31,1.092-1.962,1.642
			c-0.882,0.747-1.759,1.5-2.629,2.264c-0.647,0.569-1.29,1.141-1.929,1.717c-0.857,0.774-1.706,1.556-2.55,2.346
			c-0.629,0.588-1.254,1.178-1.875,1.775c-0.838,0.806-1.666,1.624-2.49,2.447c-0.604,0.603-1.208,1.204-1.805,1.816
			c-0.827,0.849-1.642,1.712-2.455,2.577c-0.57,0.606-1.142,1.208-1.703,1.821c-0.831,0.909-1.648,1.836-2.462,2.763
			c-0.522,0.593-1.049,1.179-1.563,1.778c-0.867,1.011-1.713,2.041-2.56,3.072c-0.441,0.535-0.89,1.063-1.325,1.603
			c-1.06,1.32-2.097,2.66-3.124,4.011c-0.204,0.269-0.417,0.529-0.62,0.799c-1.223,1.627-2.421,3.277-3.595,4.949
			c-0.339,0.483-0.663,0.979-0.999,1.466c-0.821,1.192-1.64,2.387-2.436,3.601c-0.438,0.668-0.859,1.349-1.288,2.024
			c-0.553,0.867-1.117,1.726-1.657,2.604l-11.396-6.579l-6.233-3.599C108.596,118.512,173.051,80.763,243.168,78.21z
			 M212.579,277.204l22.985,13.27L97.821,370.003c-0.391-0.723-0.777-1.449-1.158-2.176c-0.359-0.687-0.726-1.372-1.075-2.062
			c-0.531-1.049-1.041-2.11-1.55-3.168c-0.303-0.632-0.617-1.257-0.912-1.892c-0.598-1.283-1.169-2.577-1.735-3.873
			c-0.184-0.42-0.378-0.834-0.559-1.255c-0.734-1.719-1.44-3.449-2.117-5.19c-0.184-0.47-0.35-0.947-0.528-1.418
			c-0.485-1.277-0.966-2.557-1.419-3.846c-0.235-0.667-0.451-1.339-0.678-2.008c-0.374-1.102-0.747-2.205-1.099-3.315
			c-0.233-0.739-0.451-1.482-0.674-2.224c-0.317-1.049-0.633-2.1-0.929-3.155c-0.218-0.777-0.423-1.556-0.631-2.336
			c-0.275-1.031-0.545-2.062-0.8-3.098c-0.197-0.797-0.383-1.597-0.569-2.397c-0.237-1.028-0.468-2.057-0.688-3.09
			c-0.171-0.808-0.337-1.618-0.497-2.429c-0.204-1.034-0.398-2.07-0.583-3.109c-0.145-0.811-0.287-1.623-0.421-2.437
			c-0.172-1.049-0.331-2.102-0.484-3.155c-0.117-0.806-0.234-1.611-0.341-2.419c-0.141-1.077-0.264-2.156-0.384-3.236
			c-0.087-0.788-0.18-1.573-0.258-2.362c-0.111-1.13-0.2-2.265-0.288-3.399c-0.058-0.74-0.125-1.479-0.173-2.22
			c-0.082-1.257-0.137-2.517-0.192-3.779c-0.026-0.622-0.067-1.242-0.087-1.864c-0.061-1.883-0.095-3.769-0.095-5.657
			c0-1.776,0.031-3.551,0.086-5.324c0.018-0.584,0.053-1.166,0.077-1.75c0.049-1.189,0.098-2.379,0.171-3.566
			c0.043-0.694,0.101-1.387,0.152-2.079c0.079-1.075,0.159-2.149,0.259-3.222c0.068-0.735,0.148-1.469,0.226-2.203
			c0.109-1.03,0.221-2.06,0.348-3.088c0.093-0.75,0.195-1.499,0.297-2.247c0.139-1.011,0.283-2.02,0.439-3.027
			c0.117-0.752,0.238-1.503,0.365-2.254c0.168-1.003,0.347-2.003,0.533-3.002c0.139-0.745,0.28-1.49,0.428-2.235
			c0.202-1.009,0.416-2.014,0.635-3.018c0.158-0.724,0.314-1.449,0.482-2.171c0.239-1.033,0.495-2.062,0.753-3.09
			c0.172-0.686,0.34-1.374,0.52-2.058c0.289-1.095,0.598-2.184,0.908-3.273c0.174-0.61,0.339-1.222,0.519-1.83
			c0.388-1.307,0.8-2.608,1.22-3.905c0.123-0.381,0.235-0.767,0.362-1.149c0.555-1.68,1.137-3.352,1.742-5.015
			c0.142-0.389,0.297-0.774,0.442-1.161c0.471-1.266,0.95-2.531,1.452-3.785c0.238-0.595,0.491-1.183,0.735-1.775
			c0.43-1.041,0.861-2.081,1.31-3.115c0.285-0.654,0.584-1.302,0.877-1.953c0.434-0.963,0.87-1.924,1.321-2.879
			c0.318-0.674,0.647-1.342,0.974-2.013c0.279-0.571,0.565-1.138,0.85-1.705L212.579,277.204z M41.412,287.432
			c0-33.329,7.974-66.25,23.121-95.7l3.787,2.187l13.851,7.996c-0.412,0.809-0.798,1.629-1.197,2.443
			c-0.336,0.685-0.679,1.367-1.007,2.055c-0.547,1.15-1.069,2.309-1.592,3.468c-0.271,0.601-0.553,1.197-0.817,1.802
			c-0.682,1.557-1.337,3.124-1.977,4.698c-0.086,0.214-0.181,0.425-0.267,0.638c-0.72,1.791-1.408,3.591-2.072,5.402
			c-0.207,0.564-0.395,1.134-0.597,1.7c-0.444,1.25-0.888,2.501-1.307,3.76c-0.237,0.716-0.457,1.436-0.685,2.153
			c-0.357,1.119-0.715,2.239-1.05,3.364c-0.232,0.777-0.448,1.557-0.67,2.337c-0.306,1.078-0.611,2.154-0.899,3.237
			c-0.214,0.808-0.417,1.619-0.62,2.43c-0.267,1.063-0.53,2.127-0.779,3.194c-0.193,0.826-0.375,1.655-0.557,2.484
			c-0.232,1.06-0.457,2.123-0.671,3.188c-0.168,0.837-0.331,1.675-0.487,2.514c-0.2,1.068-0.388,2.136-0.57,3.207
			c-0.142,0.839-0.281,1.676-0.412,2.515c-0.168,1.084-0.322,2.17-0.471,3.255c-0.115,0.83-0.229,1.661-0.333,2.493
			c-0.138,1.111-0.258,2.224-0.376,3.339c-0.085,0.81-0.176,1.619-0.252,2.431c-0.107,1.164-0.195,2.33-0.281,3.496
			c-0.057,0.764-0.123,1.528-0.17,2.293c-0.08,1.288-0.133,2.577-0.187,3.867c-0.026,0.646-0.066,1.291-0.086,1.938
			c-0.06,1.935-0.093,3.873-0.093,5.812c0,2.057,0.038,4.112,0.104,6.163c0.022,0.682,0.066,1.362,0.095,2.043
			c0.06,1.37,0.12,2.739,0.209,4.105c0.053,0.81,0.127,1.617,0.19,2.425c0.096,1.234,0.193,2.468,0.313,3.699
			c0.084,0.863,0.188,1.721,0.283,2.582c0.132,1.173,0.265,2.347,0.418,3.517c0.116,0.883,0.246,1.764,0.374,2.646
			c0.166,1.144,0.338,2.286,0.524,3.426c0.147,0.891,0.303,1.779,0.462,2.668c0.202,1.125,0.411,2.249,0.633,3.369
			c0.175,0.89,0.359,1.778,0.547,2.664c0.237,1.116,0.487,2.23,0.744,3.342c0.204,0.881,0.411,1.761,0.628,2.638
			c0.276,1.115,0.566,2.225,0.862,3.335c0.23,0.864,0.459,1.728,0.702,2.587c0.317,1.125,0.653,2.245,0.991,3.364
			c0.251,0.833,0.498,1.668,0.761,2.498c0.366,1.156,0.755,2.305,1.145,3.454c0.265,0.782,0.521,1.567,0.796,2.346
			c0.439,1.242,0.904,2.475,1.369,3.709c0.254,0.674,0.496,1.353,0.757,2.026c0.628,1.608,1.286,3.206,1.958,4.797
			c0.122,0.288,0.232,0.58,0.356,0.868c0.803,1.877,1.639,3.739,2.504,5.589c0.258,0.555,0.537,1.101,0.802,1.654
			c0.618,1.291,1.239,2.581,1.888,3.86c0.355,0.698,0.728,1.386,1.091,2.08c0.477,0.91,0.941,1.829,1.434,2.732l-17.622,10.174
			C50.241,357.14,41.412,322.603,41.412,287.432z M243.167,476.515v20.139c-34.319-1.243-67.855-10.89-97.435-28.087
			c-28.607-16.63-53.001-39.939-70.942-67.707l17.519-10.115v0.001l0.128-0.074c0.502,0.766,1.025,1.518,1.538,2.276
			c0.423,0.627,0.839,1.258,1.269,1.88c0.736,1.062,1.491,2.108,2.248,3.153c0.374,0.517,0.739,1.042,1.119,1.556
			c1.055,1.429,2.132,2.839,3.226,4.236c0.095,0.122,0.186,0.246,0.281,0.367c1.195,1.519,2.415,3.017,3.655,4.497
			c0.376,0.448,0.764,0.884,1.145,1.33c0.871,1.02,1.743,2.04,2.635,3.042c0.492,0.553,0.997,1.092,1.494,1.638
			c0.801,0.878,1.601,1.756,2.417,2.619c0.549,0.581,1.109,1.15,1.666,1.724c0.786,0.81,1.573,1.618,2.372,2.414
			c0.588,0.584,1.184,1.16,1.778,1.736c0.79,0.766,1.584,1.529,2.387,2.281c0.614,0.576,1.236,1.145,1.858,1.712
			c0.805,0.734,1.615,1.462,2.432,2.182c0.637,0.561,1.275,1.116,1.919,1.668c0.825,0.708,1.657,1.407,2.494,2.1
			c0.652,0.54,1.306,1.079,1.965,1.611c0.852,0.687,1.712,1.363,2.576,2.035c0.661,0.514,1.32,1.029,1.987,1.535
			c0.89,0.674,1.792,1.334,2.695,1.993c0.657,0.48,1.31,0.963,1.973,1.434c0.95,0.675,1.913,1.332,2.876,1.99
			c0.632,0.432,1.257,0.87,1.895,1.294c1.076,0.716,2.165,1.409,3.256,2.103c0.538,0.343,1.07,0.695,1.612,1.033
			c1.64,1.02,3.295,2.019,4.967,2.989c1.726,1.002,3.467,1.971,5.222,2.915c0.577,0.311,1.163,0.602,1.743,0.907
			c1.184,0.621,2.368,1.243,3.565,1.838c0.699,0.349,1.406,0.678,2.11,1.017c1.091,0.526,2.181,1.052,3.28,1.556
			c0.755,0.347,1.518,0.677,2.277,1.014c1.061,0.469,2.121,0.937,3.19,1.386c0.789,0.333,1.583,0.651,2.375,0.971
			c1.052,0.426,2.106,0.848,3.165,1.254c0.81,0.31,1.623,0.612,2.437,0.911c1.056,0.388,2.114,0.769,3.176,1.14
			c0.822,0.286,1.646,0.566,2.471,0.841c1.068,0.355,2.139,0.699,3.213,1.034c0.826,0.259,1.654,0.514,2.484,0.762
			c1.089,0.323,2.181,0.633,3.275,0.937c0.822,0.229,1.643,0.459,2.469,0.676c1.12,0.296,2.246,0.573,3.372,0.848
			c0.806,0.197,1.61,0.397,2.419,0.584c1.177,0.272,2.359,0.519,3.541,0.767c0.762,0.16,1.523,0.33,2.287,0.481
			c1.303,0.257,2.611,0.487,3.92,0.717c0.65,0.114,1.298,0.241,1.949,0.348c1.838,0.302,3.682,0.576,5.531,0.824
			c0.124,0.016,0.247,0.039,0.371,0.055c1.974,0.261,3.954,0.488,5.937,0.686c0.633,0.064,1.267,0.106,1.901,0.164
			c1.35,0.122,2.701,0.242,4.054,0.335c0.785,0.054,1.571,0.087,2.357,0.131c0.968,0.054,1.933,0.123,2.903,0.161V476.515z
			 M243.17,461.122c-0.728-0.031-1.456-0.067-2.182-0.107c-0.771-0.048-1.54-0.086-2.309-0.14c-1.107-0.077-2.212-0.175-3.316-0.274
			c-0.715-0.064-1.431-0.12-2.144-0.192c-1.229-0.125-2.455-0.275-3.68-0.425c-0.585-0.072-1.171-0.132-1.755-0.21
			c-1.809-0.241-3.613-0.508-5.412-0.806c-0.048-0.008-0.095-0.018-0.143-0.025c-1.75-0.292-3.494-0.611-5.233-0.956
			c-0.587-0.117-1.169-0.25-1.754-0.372c-1.198-0.25-2.396-0.502-3.587-0.778c-0.693-0.16-1.382-0.337-2.072-0.506
			c-1.079-0.263-2.156-0.527-3.229-0.811c-0.733-0.194-1.461-0.401-2.192-0.604c-1.025-0.286-2.049-0.574-3.069-0.878
			c-0.747-0.223-1.491-0.457-2.236-0.689c-0.996-0.312-1.989-0.63-2.98-0.959c-0.75-0.25-1.497-0.507-2.244-0.767
			c-0.979-0.342-1.956-0.691-2.929-1.05c-0.742-0.274-1.482-0.551-2.22-0.833c-0.973-0.374-1.944-0.76-2.91-1.153
			c-0.725-0.294-1.451-0.587-2.172-0.891c-0.978-0.412-1.95-0.839-2.921-1.269c-0.698-0.309-1.396-0.613-2.09-0.932
			c-1.008-0.462-2.006-0.944-3.005-1.425c-0.644-0.311-1.292-0.613-1.931-0.933c-1.097-0.546-2.184-1.115-3.27-1.685
			c-0.53-0.279-1.067-0.547-1.595-0.83c-1.607-0.866-3.204-1.753-4.785-2.672c-1.531-0.888-3.046-1.803-4.548-2.737
			c-0.499-0.31-0.989-0.634-1.483-0.949c-0.997-0.635-1.993-1.269-2.977-1.923c-0.584-0.388-1.159-0.79-1.738-1.184
			c-0.881-0.602-1.762-1.204-2.632-1.822c-0.608-0.432-1.208-0.873-1.81-1.312c-0.827-0.603-1.653-1.209-2.469-1.827
			c-0.611-0.462-1.216-0.932-1.82-1.401c-0.793-0.615-1.581-1.237-2.362-1.865c-0.604-0.487-1.204-0.977-1.803-1.472
			c-0.767-0.636-1.529-1.277-2.285-1.925c-0.59-0.505-1.178-1.012-1.761-1.524c-0.752-0.662-1.497-1.333-2.239-2.008
			c-0.567-0.516-1.133-1.03-1.693-1.553c-0.749-0.701-1.487-1.412-2.224-2.126c-0.532-0.515-1.069-1.026-1.594-1.548
			c-0.769-0.763-1.525-1.543-2.28-2.321c-0.473-0.488-0.954-0.969-1.421-1.462c-0.883-0.932-1.749-1.88-2.612-2.831
			c-0.322-0.356-0.655-0.703-0.974-1.061c-1.169-1.309-2.318-2.636-3.447-3.979c-0.321-0.382-0.632-0.777-0.95-1.162
			c-0.805-0.975-1.609-1.953-2.394-2.945c-0.423-0.534-0.831-1.08-1.248-1.619c-0.663-0.86-1.326-1.719-1.973-2.59
			c-0.441-0.595-0.871-1.198-1.305-1.799c-0.602-0.833-1.203-1.669-1.792-2.513c-0.438-0.629-0.866-1.264-1.296-1.899
			c-0.346-0.511-0.686-1.027-1.027-1.542l137.52-79.398V461.122z M243.171,277.304l-71.52-41.292l-68.845-39.748
			c0.448-0.723,0.9-1.442,1.357-2.158c0.398-0.627,0.793-1.258,1.201-1.879c0.674-1.027,1.368-2.038,2.061-3.048
			c0.367-0.534,0.726-1.077,1.098-1.606c0.881-1.251,1.783-2.483,2.694-3.708c0.203-0.272,0.397-0.552,0.601-0.822
			c1.129-1.5,2.282-2.98,3.456-4.438c0.258-0.32,0.526-0.631,0.786-0.949c0.918-1.123,1.84-2.241,2.783-3.338
			c0.416-0.484,0.844-0.954,1.263-1.434c0.804-0.915,1.61-1.831,2.432-2.728c0.483-0.527,0.975-1.042,1.464-1.563
			c0.78-0.83,1.56-1.659,2.354-2.472c0.522-0.535,1.053-1.061,1.583-1.589c0.782-0.781,1.566-1.557,2.362-2.322
			c0.549-0.527,1.103-1.047,1.658-1.567c0.797-0.745,1.599-1.485,2.408-2.216c0.567-0.51,1.137-1.017,1.708-1.519
			c0.82-0.721,1.647-1.432,2.48-2.136c0.577-0.488,1.155-0.974,1.738-1.455c0.853-0.703,1.714-1.393,2.58-2.078
			c0.577-0.457,1.153-0.916,1.735-1.365c0.9-0.695,1.812-1.376,2.725-2.052c0.563-0.418,1.121-0.838,1.689-1.249
			c0.979-0.709,1.972-1.397,2.966-2.086c0.514-0.356,1.023-0.72,1.541-1.069c1.161-0.785,2.336-1.547,3.514-2.304
			c0.363-0.233,0.72-0.474,1.085-0.705c3.122-1.97,6.305-3.841,9.545-5.609c0.446-0.243,0.899-0.472,1.347-0.713
			c1.168-0.625,2.338-1.244,3.519-1.841c0.578-0.293,1.164-0.571,1.745-0.857c1.064-0.523,2.128-1.043,3.202-1.544
			c0.644-0.3,1.293-0.589,1.941-0.881c1.025-0.463,2.051-0.923,3.085-1.366c0.681-0.292,1.368-0.575,2.053-0.859
			c1.014-0.42,2.029-0.832,3.051-1.232c0.707-0.277,1.415-0.547,2.126-0.814c1.014-0.382,2.032-0.755,3.054-1.118
			c0.721-0.257,1.443-0.509,2.168-0.756c1.028-0.35,2.06-0.687,3.094-1.019c0.724-0.232,1.449-0.463,2.176-0.685
			c1.052-0.321,2.112-0.628,3.17-0.929c0.718-0.205,1.434-0.413,2.154-0.607c1.098-0.297,2.201-0.575,3.306-0.851
			c0.688-0.171,1.375-0.352,2.066-0.515c1.197-0.283,2.401-0.542,3.605-0.801c0.605-0.13,1.208-0.271,1.815-0.394
			c1.522-0.309,3.05-0.59,4.582-0.859c0.296-0.053,0.589-0.114,0.886-0.164c1.833-0.311,3.674-0.593,5.522-0.846
			c0.506-0.069,1.015-0.122,1.522-0.187c1.337-0.171,2.675-0.338,4.019-0.478c0.706-0.073,1.415-0.128,2.124-0.193
			c1.15-0.105,2.3-0.211,3.455-0.293c0.781-0.056,1.564-0.094,2.347-0.14c0.787-0.046,1.575-0.085,2.363-0.121V277.304z
			 M394.85,384.615c-0.42,0.62-0.839,1.242-1.266,1.857c-0.598,0.859-1.208,1.707-1.822,2.556c-0.425,0.588-0.846,1.179-1.278,1.761
			c-0.655,0.884-1.328,1.755-2,2.627c-0.408,0.528-0.809,1.063-1.224,1.587c-0.794,1.006-1.608,1.996-2.425,2.984
			c-0.308,0.373-0.608,0.754-0.92,1.124c-1.13,1.346-2.281,2.675-3.452,3.985c-0.308,0.345-0.627,0.678-0.938,1.021
			c-0.874,0.964-1.752,1.924-2.647,2.869c-0.464,0.489-0.941,0.966-1.41,1.45c-0.758,0.783-1.518,1.565-2.292,2.333
			c-0.524,0.521-1.058,1.031-1.59,1.544c-0.738,0.714-1.476,1.427-2.227,2.128c-0.56,0.524-1.126,1.038-1.694,1.554
			c-0.74,0.674-1.484,1.345-2.237,2.008c-0.584,0.512-1.172,1.019-1.761,1.525c-0.756,0.648-1.518,1.289-2.284,1.923
			c-0.599,0.495-1.201,0.987-1.807,1.475c-0.78,0.628-1.565,1.246-2.355,1.86c-0.607,0.472-1.215,0.944-1.829,1.408
			c-0.813,0.615-1.634,1.219-2.459,1.819c-0.605,0.441-1.208,0.885-1.818,1.318c-0.867,0.615-1.747,1.217-2.625,1.817
			c-0.582,0.397-1.16,0.8-1.746,1.189c-0.978,0.651-1.969,1.283-2.961,1.913c-0.501,0.318-0.997,0.646-1.498,0.96
			c-1.503,0.934-3.016,1.847-4.546,2.735c-1.581,0.918-3.176,1.805-4.783,2.671c-0.532,0.287-1.075,0.557-1.609,0.838
			c-1.081,0.568-2.164,1.135-3.256,1.678c-0.644,0.32-1.295,0.626-1.943,0.938c-0.995,0.48-1.99,0.959-2.993,1.419
			c-0.698,0.319-1.399,0.627-2.1,0.937c-0.967,0.428-1.935,0.854-2.91,1.264c-0.725,0.305-1.454,0.6-2.182,0.895
			c-0.963,0.39-1.928,0.775-2.898,1.148c-0.741,0.285-1.486,0.564-2.231,0.837c-0.97,0.358-1.943,0.707-2.919,1.046
			c-0.749,0.262-1.501,0.519-2.254,0.77c-0.986,0.328-1.976,0.645-2.969,0.956c-0.747,0.233-1.495,0.468-2.247,0.692
			c-1.016,0.303-2.037,0.591-3.058,0.875c-0.734,0.205-1.466,0.413-2.203,0.607c-1.069,0.283-2.142,0.545-3.217,0.808
			c-0.694,0.169-1.387,0.347-2.083,0.508c-1.187,0.275-2.38,0.524-3.571,0.774c-0.591,0.124-1.178,0.259-1.77,0.376
			c-1.726,0.342-3.456,0.658-5.193,0.949c-0.062,0.01-0.122,0.022-0.182,0.032c-1.797,0.298-3.601,0.565-5.408,0.806
			c-0.588,0.078-1.178,0.139-1.766,0.211c-1.222,0.15-2.443,0.299-3.669,0.424c-0.716,0.073-1.434,0.128-2.151,0.192
			c-1.102,0.098-2.205,0.196-3.31,0.274c-0.77,0.054-1.54,0.093-2.31,0.136c-0.726,0.041-1.453,0.076-2.179,0.107V303.647
			l32.043,18.501l105.476,60.897C395.549,383.57,395.203,384.095,394.85,384.615z M415.443,343.156
			c-0.221,0.651-0.431,1.305-0.659,1.953c-0.469,1.331-0.964,2.652-1.466,3.971c-0.163,0.429-0.313,0.863-0.481,1.291
			c-0.68,1.748-1.389,3.484-2.126,5.21c-0.163,0.381-0.341,0.756-0.506,1.137c-0.582,1.336-1.172,2.672-1.789,3.995
			c-0.284,0.61-0.586,1.213-0.878,1.819c-0.521,1.085-1.042,2.17-1.587,3.244c-0.34,0.671-0.695,1.334-1.044,2.002
			c-0.388,0.743-0.782,1.484-1.181,2.222l-137.743-79.526l140.183-80.936c0.284,0.565,0.568,1.127,0.845,1.694
			c0.331,0.676,0.662,1.35,0.983,2.03c0.449,0.949,0.882,1.904,1.313,2.859c0.296,0.657,0.597,1.311,0.885,1.971
			c0.444,1.022,0.87,2.052,1.296,3.082c0.249,0.603,0.507,1.203,0.749,1.81c0.495,1.24,0.967,2.49,1.435,3.74
			c0.149,0.401,0.31,0.8,0.457,1.202c0.603,1.665,1.183,3.335,1.738,5.011c0.132,0.398,0.249,0.801,0.378,1.199
			c0.413,1.282,0.82,2.565,1.204,3.855c0.182,0.615,0.35,1.237,0.526,1.854c0.308,1.08,0.614,2.162,0.902,3.247
			c0.182,0.689,0.35,1.382,0.524,2.074c0.256,1.024,0.511,2.048,0.749,3.076c0.168,0.724,0.324,1.45,0.484,2.176
			c0.219,1.003,0.434,2.006,0.635,3.014c0.149,0.744,0.29,1.49,0.429,2.237c0.187,0.998,0.363,1.998,0.532,2.999
			c0.126,0.751,0.248,1.504,0.364,2.257c0.156,1.006,0.3,2.012,0.439,3.021c0.102,0.75,0.205,1.502,0.298,2.254
			c0.127,1.027,0.238,2.055,0.347,3.084c0.077,0.734,0.158,1.467,0.226,2.202c0.1,1.075,0.18,2.15,0.26,3.227
			c0.052,0.692,0.109,1.384,0.152,2.076c0.073,1.187,0.123,2.377,0.172,3.566c0.023,0.584,0.059,1.166,0.077,1.75
			c0.055,1.773,0.085,3.547,0.085,5.324c0,1.888-0.034,3.775-0.096,5.657c-0.02,0.622-0.061,1.243-0.087,1.864
			c-0.055,1.26-0.109,2.52-0.191,3.779c-0.049,0.74-0.116,1.478-0.173,2.218c-0.088,1.135-0.177,2.271-0.288,3.404
			c-0.077,0.786-0.169,1.569-0.258,2.353c-0.121,1.084-0.243,2.167-0.385,3.246c-0.105,0.804-0.223,1.607-0.34,2.408
			c-0.152,1.058-0.312,2.115-0.486,3.169c-0.132,0.808-0.274,1.614-0.417,2.419c-0.187,1.044-0.381,2.088-0.587,3.129
			c-0.158,0.805-0.322,1.608-0.493,2.411c-0.221,1.04-0.453,2.077-0.693,3.113c-0.184,0.792-0.367,1.583-0.563,2.371
			c-0.258,1.047-0.531,2.09-0.809,3.132c-0.204,0.768-0.406,1.537-0.62,2.301c-0.301,1.07-0.619,2.133-0.941,3.196
			c-0.221,0.729-0.434,1.459-0.663,2.185C416.203,340.914,415.824,342.035,415.443,343.156z M434.539,387.796l-17.485-10.097
			l-0.138-0.08c0.498-0.912,0.966-1.84,1.449-2.761c0.357-0.681,0.724-1.359,1.072-2.045c0.66-1.3,1.291-2.611,1.92-3.924
			c0.255-0.531,0.522-1.056,0.772-1.59c0.867-1.855,1.706-3.724,2.51-5.605c0.098-0.229,0.187-0.462,0.283-0.691
			c0.699-1.65,1.379-3.306,2.03-4.974c0.252-0.646,0.485-1.299,0.729-1.948c0.475-1.259,0.951-2.519,1.399-3.789
			c0.269-0.76,0.518-1.527,0.778-2.291c0.395-1.166,0.79-2.333,1.162-3.507c0.26-0.818,0.502-1.64,0.75-2.462
			c0.342-1.133,0.681-2.264,1.002-3.403c0.238-0.849,0.465-1.701,0.692-2.553c0.299-1.121,0.592-2.244,0.87-3.371
			c0.215-0.868,0.42-1.738,0.622-2.61c0.26-1.12,0.511-2.243,0.749-3.368c0.188-0.88,0.368-1.76,0.543-2.642
			c0.223-1.128,0.434-2.26,0.637-3.393c0.157-0.882,0.314-1.765,0.458-2.649c0.189-1.146,0.36-2.293,0.528-3.443
			c0.127-0.876,0.257-1.752,0.371-2.629c0.154-1.177,0.288-2.356,0.42-3.536c0.096-0.855,0.198-1.708,0.282-2.565
			c0.121-1.234,0.217-2.471,0.314-3.708c0.064-0.806,0.137-1.611,0.19-2.418c0.089-1.368,0.149-2.737,0.209-4.108
			c0.029-0.68,0.073-1.36,0.096-2.042c0.066-2.051,0.104-4.106,0.104-6.163c0-1.94-0.033-3.878-0.093-5.815
			c-0.019-0.642-0.06-1.281-0.086-1.922c-0.054-1.294-0.106-2.588-0.187-3.88c-0.048-0.764-0.113-1.528-0.169-2.292
			c-0.087-1.166-0.173-2.333-0.281-3.497c-0.075-0.811-0.166-1.619-0.252-2.428c-0.118-1.116-0.237-2.231-0.376-3.344
			c-0.103-0.83-0.218-1.658-0.332-2.486c-0.15-1.089-0.304-2.178-0.472-3.264c-0.131-0.837-0.27-1.672-0.411-2.507
			c-0.181-1.075-0.371-2.147-0.571-3.218c-0.155-0.835-0.317-1.669-0.485-2.501c-0.215-1.071-0.442-2.138-0.674-3.206
			c-0.18-0.822-0.362-1.643-0.554-2.464c-0.25-1.076-0.515-2.148-0.784-3.219c-0.202-0.803-0.401-1.606-0.615-2.406
			c-0.29-1.093-0.598-2.181-0.907-3.269c-0.22-0.768-0.433-1.538-0.66-2.303c-0.342-1.143-0.704-2.279-1.067-3.416
			c-0.224-0.701-0.439-1.404-0.67-2.103c-0.425-1.277-0.874-2.547-1.326-3.815c-0.196-0.55-0.379-1.102-0.58-1.65
			c-0.664-1.813-1.354-3.616-2.074-5.409c-0.078-0.194-0.163-0.384-0.242-0.578c-0.647-1.594-1.31-3.18-2-4.755
			c-0.266-0.604-0.547-1.201-0.819-1.803c-0.522-1.158-1.043-2.316-1.589-3.463c-0.331-0.698-0.679-1.387-1.02-2.081
			c-0.396-0.807-0.779-1.619-1.186-2.421l17.638-10.183c15.147,29.451,23.122,62.373,23.122,95.7
			C460.134,322.604,451.305,357.141,434.539,387.796z"/>
	</g>
</g>
<g>
	<g>
		<path d="M219.359,174.434c-5.217-9.038-14.947-14.653-25.394-14.653c-5.115,0-10.172,1.359-14.625,3.929
			c-6.777,3.912-11.624,10.23-13.649,17.788c-2.025,7.559-0.984,15.454,2.928,22.23c5.217,9.039,14.947,14.653,25.393,14.653
			c5.117,0,10.174-1.359,14.624-3.93c6.778-3.912,11.625-10.23,13.65-17.788C224.31,189.104,223.271,181.209,219.359,174.434z
			 M207.597,192.727c-0.973,3.635-3.305,6.672-6.565,8.555c-2.142,1.237-4.569,1.891-7.019,1.891c-5.029,0-9.713-2.701-12.223-7.049
			c-1.882-3.259-2.383-7.055-1.408-10.69c0.974-3.635,3.304-6.672,6.563-8.554c2.143-1.238,4.571-1.892,7.021-1.892
			c5.03,0,9.714,2.701,12.223,7.049C208.07,185.295,208.57,189.092,207.597,192.727z"/>
	</g>
</g>
<g>
	<g>
		<path d="M332.926,371.136c-5.218-9.038-14.949-14.651-25.395-14.651c-5.116,0-10.172,1.359-14.624,3.929
			c-13.989,8.076-18.799,26.029-10.722,40.019c5.217,9.038,14.947,14.651,25.393,14.651c5.115,0,10.171-1.359,14.625-3.929
			c6.777-3.912,11.624-10.229,13.65-17.788C337.879,385.81,336.84,377.914,332.926,371.136z M321.164,389.43
			c-0.974,3.636-3.306,6.673-6.564,8.555c-2.144,1.238-4.573,1.892-7.022,1.892c-5.03,0-9.713-2.701-12.223-7.047
			c-3.884-6.728-1.571-15.361,5.156-19.245c2.142-1.237,4.569-1.891,7.019-1.891c5.03,0,9.715,2.701,12.225,7.048
			C321.638,382.001,322.139,385.797,321.164,389.43z"/>
	</g>
</g>
<g>
	<g>
		<path d="M137.203,258.136c-16.153,0-29.294,13.142-29.294,29.296c0,7.826,3.048,15.184,8.581,20.716
			c5.533,5.533,12.889,8.579,20.715,8.579c16.154,0,29.296-13.142,29.296-29.296C166.501,271.278,153.358,258.136,137.203,258.136z
			 M137.205,301.52h-0.002c-3.761,0-7.3-1.465-9.96-4.125c-2.66-2.661-4.126-6.199-4.126-9.962c0-7.768,6.319-14.088,14.087-14.088
			c7.769,0,14.09,6.319,14.09,14.088S144.974,301.52,137.205,301.52z"/>
	</g>
</g>
<g>
	<g>
		<path d="M385.055,266.718c-5.534-5.533-12.89-8.58-20.716-8.58c-16.153,0-29.294,13.142-29.296,29.296
			c0,7.827,3.049,15.185,8.581,20.715c5.534,5.533,12.891,8.58,20.718,8.58c16.15,0,29.29-13.141,29.294-29.295
			C393.636,279.609,390.589,272.251,385.055,266.718z M364.344,301.519h-0.002c-3.763,0-7.301-1.465-9.963-4.127
			c-2.66-2.659-4.125-6.197-4.125-9.959c0.001-7.768,6.32-14.088,14.089-14.088c3.762,0,7.299,1.465,9.959,4.125
			c2.662,2.661,4.128,6.2,4.128,9.961C378.427,295.2,372.109,301.519,364.344,301.519z"/>
	</g>
</g>
<g>
	<g>
		<path d="M222.287,378.202c-2.026-7.558-6.873-13.875-13.649-17.786c-4.451-2.571-9.508-3.93-14.624-3.93
			c-10.446,0-20.177,5.615-25.393,14.651c-3.914,6.777-4.954,14.671-2.929,22.23c2.025,7.559,6.873,13.877,13.65,17.789
			c4.452,2.57,9.508,3.929,14.623,3.929c10.447,0,20.177-5.616,25.394-14.653C223.271,393.655,224.311,385.76,222.287,378.202z
			 M206.187,392.829c-2.509,4.347-7.193,7.048-12.223,7.048c-2.45,0-4.877-0.654-7.019-1.891c-3.259-1.882-5.59-4.919-6.564-8.555
			c-0.973-3.635-0.474-7.431,1.409-10.69c2.51-4.347,7.193-7.047,12.224-7.047c2.45,0,4.877,0.654,7.019,1.891
			c3.259,1.881,5.589,4.919,6.563,8.553C208.57,385.772,208.07,389.569,206.187,392.829z"/>
	</g>
</g>
<g>
	<g>
		<path d="M482.111,114.638C442.337,43.927,367.293,0,286.262,0h-7.604v35.485v15.208v190.09l163.164-94.202l43.975-25.389
			L482.111,114.638z M293.868,214.445V50.881c0.788,0.036,1.575,0.075,2.361,0.121c0.783,0.046,1.566,0.084,2.347,0.14
			c1.155,0.083,2.305,0.189,3.456,0.294c0.707,0.065,1.416,0.12,2.123,0.193c1.344,0.14,2.684,0.307,4.022,0.479
			c0.506,0.065,1.014,0.117,1.519,0.186c1.847,0.253,3.689,0.534,5.523,0.846c0.292,0.05,0.582,0.11,0.874,0.162
			c1.537,0.27,3.069,0.552,4.594,0.862c0.604,0.123,1.203,0.263,1.805,0.392c1.208,0.259,2.415,0.519,3.614,0.803
			c0.689,0.163,1.373,0.342,2.059,0.513c1.107,0.277,2.214,0.555,3.313,0.853c0.718,0.195,1.432,0.401,2.147,0.605
			c1.062,0.302,2.123,0.609,3.178,0.931c0.725,0.221,1.447,0.452,2.169,0.683c1.037,0.332,2.073,0.67,3.103,1.021
			c0.722,0.246,1.442,0.498,2.159,0.753c1.025,0.364,2.046,0.738,3.063,1.121c0.708,0.267,1.414,0.535,2.118,0.811
			c1.025,0.401,2.044,0.815,3.06,1.236c0.683,0.282,1.366,0.564,2.045,0.855c1.037,0.445,2.067,0.906,3.095,1.371
			c0.645,0.291,1.291,0.578,1.93,0.877c1.078,0.503,2.143,1.024,3.21,1.548c0.579,0.285,1.162,0.563,1.739,0.854
			c1.186,0.599,2.359,1.222,3.53,1.847c0.445,0.237,0.893,0.464,1.334,0.706c3.241,1.769,6.426,3.639,9.549,5.61
			c0.361,0.228,0.715,0.468,1.075,0.699c1.182,0.758,2.36,1.523,3.524,2.31c0.517,0.35,1.024,0.712,1.537,1.067
			c0.996,0.688,1.99,1.379,2.972,2.09c0.567,0.409,1.124,0.829,1.686,1.246c0.912,0.676,1.824,1.357,2.725,2.052
			c0.584,0.45,1.161,0.91,1.74,1.37c0.864,0.684,1.724,1.373,2.574,2.074c0.585,0.482,1.164,0.969,1.744,1.459
			c0.829,0.702,1.654,1.41,2.471,2.128c0.576,0.506,1.15,1.015,1.719,1.529c0.806,0.727,1.604,1.463,2.397,2.206
			c0.559,0.522,1.116,1.045,1.668,1.576c0.791,0.76,1.571,1.533,2.348,2.309c0.534,0.532,1.07,1.064,1.597,1.604
			c0.787,0.806,1.561,1.627,2.334,2.451c0.496,0.528,0.996,1.05,1.485,1.585c0.81,0.884,1.603,1.785,2.396,2.688
			c0.433,0.493,0.873,0.977,1.301,1.475c0.921,1.074,1.822,2.166,2.719,3.264c0.281,0.343,0.571,0.677,0.848,1.022
			c1.171,1.455,2.321,2.93,3.447,4.427c0.222,0.295,0.434,0.599,0.654,0.895c0.892,1.2,1.776,2.407,2.639,3.633
			c0.385,0.548,0.756,1.109,1.137,1.662c0.679,0.991,1.36,1.981,2.021,2.988c0.418,0.637,0.823,1.285,1.233,1.927
			c0.449,0.704,0.895,1.411,1.335,2.122L293.868,214.445z M447.424,125.786c-0.557-0.905-1.138-1.79-1.707-2.684
			c-0.41-0.643-0.81-1.292-1.227-1.927c-0.827-1.264-1.68-2.507-2.536-3.747c-0.303-0.439-0.595-0.888-0.901-1.324
			c-1.179-1.678-2.383-3.336-3.61-4.969c-0.164-0.218-0.337-0.429-0.502-0.647c-1.065-1.403-2.141-2.794-3.242-4.164
			c-0.416-0.517-0.847-1.021-1.267-1.534c-0.866-1.053-1.731-2.107-2.618-3.14c-0.503-0.587-1.019-1.16-1.529-1.74
			c-0.825-0.94-1.654-1.88-2.497-2.801c-0.552-0.603-1.114-1.194-1.672-1.789c-0.824-0.877-1.65-1.752-2.488-2.612
			c-0.586-0.601-1.181-1.192-1.774-1.784c-0.833-0.833-1.672-1.661-2.52-2.477c-0.611-0.589-1.231-1.171-1.85-1.752
			c-0.852-0.798-1.708-1.587-2.573-2.368c-0.634-0.571-1.269-1.138-1.909-1.699c-0.875-0.768-1.758-1.528-2.647-2.28
			c-0.646-0.547-1.293-1.093-1.947-1.63c-0.907-0.747-1.825-1.481-2.746-2.212c-0.651-0.516-1.299-1.033-1.957-1.54
			c-0.951-0.734-1.915-1.452-2.879-2.168c-0.644-0.478-1.284-0.96-1.932-1.43c-1.019-0.736-2.051-1.453-3.084-2.168
			c-0.61-0.423-1.215-0.854-1.83-1.269c-1.157-0.782-2.328-1.538-3.501-2.293c-0.506-0.326-1.006-0.663-1.516-0.984
			c-3.387-2.136-6.841-4.164-10.356-6.082c-0.513-0.28-1.035-0.542-1.549-0.817c-1.245-0.664-2.49-1.326-3.749-1.962
			c-0.671-0.339-1.35-0.661-2.026-0.992c-1.117-0.547-2.234-1.095-3.362-1.621c-0.742-0.347-1.491-0.676-2.238-1.013
			c-1.076-0.484-2.149-0.966-3.233-1.431c-0.785-0.337-1.576-0.659-2.364-0.984c-1.06-0.437-2.121-0.87-3.19-1.288
			c-0.814-0.318-1.63-0.627-2.449-0.934c-1.057-0.397-2.118-0.787-3.182-1.165c-0.832-0.296-1.668-0.584-2.503-0.868
			c-1.069-0.362-2.138-0.714-3.214-1.056c-0.841-0.269-1.684-0.534-2.53-0.792c-1.083-0.33-2.172-0.645-3.261-0.955
			c-0.847-0.24-1.692-0.482-2.542-0.711c-1.109-0.298-2.222-0.58-3.338-0.859c-0.839-0.21-1.676-0.424-2.518-0.622
			c-1.154-0.272-2.312-0.521-3.471-0.772c-0.812-0.175-1.621-0.358-2.435-0.522c-1.243-0.25-2.492-0.475-3.741-0.702
			c-0.739-0.134-1.474-0.279-2.215-0.404c-1.516-0.255-3.04-0.481-4.565-0.699c-0.481-0.069-0.956-0.151-1.438-0.216
			c-2.008-0.273-4.024-0.511-6.046-0.719c-0.526-0.054-1.054-0.088-1.581-0.138c-1.5-0.141-3.001-0.277-4.508-0.382
			c-0.759-0.053-1.522-0.084-2.282-0.128c-1.07-0.062-2.135-0.137-3.208-0.18V15.347c70.115,2.554,134.572,40.302,171.185,100.261
			L447.424,125.786z"/>
	</g>
</g>
<g>
	<g>
		<path d="M371.333,118.638c-2.027-7.564-6.87-13.883-13.638-17.791c-4.453-2.571-9.51-3.929-14.626-3.929
			c-10.446,0-20.175,5.615-25.392,14.652c-8.076,13.989-3.268,31.942,10.722,40.019c4.452,2.57,9.508,3.928,14.623,3.928
			c10.447,0,20.177-5.615,25.394-14.652C372.324,134.096,373.36,126.203,371.333,118.638z M355.245,133.261
			c-2.51,4.347-7.194,7.048-12.224,7.048c-2.449,0-4.877-0.654-7.019-1.891c-6.727-3.884-9.04-12.518-5.155-19.245
			c2.51-4.347,7.193-7.047,12.222-7.047c2.451,0,4.878,0.654,7.021,1.891c3.251,1.878,5.578,4.916,6.554,8.557
			C357.619,126.215,357.122,130.009,355.245,133.261z"/>
	</g>
</g>
<g>
</g>
<g>
</g>
<g>
</g>
<g>
</g>
<g>
</g>
<g>
</g>
<g>
</g>
<g>
</g>
<g>
</g>
<g>
</g>
<g>
</g>
<g>
</g>
<g>
</g>
<g>
</g>
<g>
</g>
</svg>
